<svg xmlns="http://www.w3.org/2000/svg" viewBox="0 0 960 240">
  <defs>
    <radialGradient id="core-grad" cx="50%" cy="50%" r="50%">
      <stop offset="0%"   stop-color="#ffffff"/>
      <stop offset="30%"  stop-color="#ff4444"/>
      <stop offset="70%"  stop-color="#ff0000"/>
      <stop offset="100%" stop-color="#220000"/>
    </radialGradient>
    <radialGradient id="ring1-grad" cx="50%" cy="50%" r="50%">
      <stop offset="0%"   stop-color="#ff6600" stop-opacity="0"/>
      <stop offset="60%"  stop-color="#ff6600" stop-opacity="0.15"/>
      <stop offset="100%" stop-color="#ff6600" stop-opacity="0.35"/>
    </radialGradient>
    <radialGradient id="ring2-grad" cx="50%" cy="50%" r="50%">
      <stop offset="0%"   stop-color="#ffd700" stop-opacity="0"/>
      <stop offset="60%"  stop-color="#ffd700" stop-opacity="0.1"/>
      <stop offset="100%" stop-color="#ffd700" stop-opacity="0.25"/>
    </radialGradient>
    <radialGradient id="ring3-grad" cx="50%" cy="50%" r="50%">
      <stop offset="0%"   stop-color="#00e676" stop-opacity="0"/>
      <stop offset="60%"  stop-color="#00e676" stop-opacity="0.08"/>
      <stop offset="100%" stop-color="#00e676" stop-opacity="0.2"/>
    </radialGradient>
    <linearGradient id="bg-grad" x1="0" y1="0" x2="1" y2="0" gradientUnits="objectBoundingBox">
      <stop offset="0%"   stop-color="#060912"/>
      <stop offset="50%"  stop-color="#08101e"/>
      <stop offset="100%" stop-color="#060912"/>
    </linearGradient>
    <linearGradient id="title-grad" x1="0%" y1="0%" x2="100%" y2="0%">
      <stop offset="0%"   stop-color="#ff3c3c"/>
      <stop offset="30%"  stop-color="#ff6a00"/>
      <stop offset="60%"  stop-color="#ffc400"/>
      <stop offset="100%" stop-color="#00e676"/>
    </linearGradient>
    <filter id="core-glow">
      <feGaussianBlur stdDeviation="5" result="blur"/>
      <feMerge><feMergeNode in="blur"/><feMergeNode in="SourceGraphic"/></feMerge>
    </filter>
    <filter id="ring-glow">
      <feGaussianBlur stdDeviation="2.5" result="blur"/>
      <feMerge><feMergeNode in="blur"/><feMergeNode in="SourceGraphic"/></feMerge>
    </filter>
    <filter id="text-glow">
      <feGaussianBlur in="SourceAlpha" stdDeviation="5" result="blur"/>
      <feColorMatrix in="blur" type="matrix"
        values="1 0 0 0 0.8  0 0.1 0 0 0  0 0 0 0 0  0 0 0 0.8 0" result="glow"/>
      <feMerge><feMergeNode in="glow"/><feMergeNode in="SourceGraphic"/></feMerge>
    </filter>
    <clipPath id="clip">
      <rect width="960" height="240" rx="14"/>
    </clipPath>
  </defs>

  <!-- Background -->
  <rect width="960" height="240" rx="14" fill="url(#bg-grad)"/>

  <!-- ── MATRIOSHKA BRAIN ICON (centered at x=120, y=120) ── -->
  <g transform="translate(120,120)" clip-path="url(#clip)">

    <!-- Ring 4 — outermost orbit, faint green -->
    <circle r="104" fill="none" stroke="#00e676" stroke-width="0.6" opacity="0.18"/>
    <circle r="104" fill="url(#ring3-grad)" opacity="0.4"/>
    <!-- Ring 4 tick marks (symmetric 12 positions) -->
    <g stroke="#00e676" stroke-width="1.2" opacity="0.35">
      <line x1="104"  y1="0"    x2="96"   y2="0"/>
      <line x1="-104" y1="0"    x2="-96"  y2="0"/>
      <line x1="0"    y1="104"  x2="0"    y2="96"/>
      <line x1="0"    y1="-104" x2="0"    y2="-96"/>
      <line x1="73.5" y1="73.5" x2="68"   y2="68"/>
      <line x1="-73.5" y1="73.5" x2="-68" y2="68"/>
      <line x1="73.5" y1="-73.5" x2="68"  y2="-68"/>
      <line x1="-73.5" y1="-73.5" x2="-68" y2="-68"/>
      <line x1="90"   y1="45"   x2="84"   y2="42"/>
      <line x1="-90"  y1="45"   x2="-84"  y2="42"/>
      <line x1="90"   y1="-45"  x2="84"   y2="-42"/>
      <line x1="-90"  y1="-45"  x2="-84"  y2="-42"/>
    </g>
    <!-- Ring 4 data nodes -->
    <g fill="#00e676" opacity="0.5">
      <circle cx="104"  cy="0"    r="2.5"/>
      <circle cx="-104" cy="0"    r="2.5"/>
      <circle cx="0"    cy="104"  r="2.5"/>
      <circle cx="0"    cy="-104" r="2.5"/>
      <circle cx="73.5" cy="73.5" r="1.8"/>
      <circle cx="-73.5" cy="73.5" r="1.8"/>
      <circle cx="73.5" cy="-73.5" r="1.8"/>
      <circle cx="-73.5" cy="-73.5" r="1.8"/>
    </g>

    <!-- Ring 3 — yellow -->
    <circle r="78" fill="none" stroke="#ffd700" stroke-width="0.8" opacity="0.25"/>
    <circle r="78" fill="url(#ring2-grad)" opacity="0.5"/>
    <!-- Ring 3 hex labels -->
    <g font-family="monospace" font-size="7" fill="#ffd700" opacity="0.4" text-anchor="middle">
      <text x="78"  y="2.5" >0E</text>
      <text x="-78" y="2.5" >BC</text>
      <text x="0"   y="-75" >02</text>
      <text x="0"   y="82"  >FF</text>
      <text x="55"  y="-56" >42</text>
      <text x="-55" y="-56" >38</text>
      <text x="55"  y="60"  >24</text>
      <text x="-55" y="60"  >3F</text>
    </g>
    <g fill="#ffd700" opacity="0.55">
      <circle cx="78"  cy="0"    r="2.2"/>
      <circle cx="-78" cy="0"    r="2.2"/>
      <circle cx="0"   cy="78"   r="2.2"/>
      <circle cx="0"   cy="-78"  r="2.2"/>
      <circle cx="55"  cy="55"   r="1.6"/>
      <circle cx="-55" cy="55"   r="1.6"/>
      <circle cx="55"  cy="-55"  r="1.6"/>
      <circle cx="-55" cy="-55"  r="1.6"/>
    </g>

    <!-- Ring 2 — orange -->
    <circle r="54" fill="none" stroke="#ff6600" stroke-width="1" opacity="0.35"/>
    <circle r="54" fill="url(#ring1-grad)" opacity="0.6"/>
    <!-- Ring 2 binary labels -->
    <g font-family="monospace" font-size="6.5" fill="#ff8c00" opacity="0.5" text-anchor="middle">
      <text x="54"  y="2.2" >101</text>
      <text x="-54" y="2.2" >010</text>
      <text x="0"   y="-51" >110</text>
      <text x="0"   y="57"  >001</text>
      <text x="38"  y="-38" >011</text>
      <text x="-38" y="-38" >111</text>
      <text x="38"  y="41"  >100</text>
      <text x="-38" y="41"  >000</text>
    </g>
    <g fill="#ff6600" opacity="0.7" filter="url(#ring-glow)">
      <circle cx="54"  cy="0"   r="2.5"/>
      <circle cx="-54" cy="0"   r="2.5"/>
      <circle cx="0"   cy="54"  r="2.5"/>
      <circle cx="0"   cy="-54" r="2.5"/>
      <circle cx="38"  cy="38"  r="2"/>
      <circle cx="-38" cy="38"  r="2"/>
      <circle cx="38"  cy="-38" r="2"/>
      <circle cx="-38" cy="-38" r="2"/>
    </g>

    <!-- Ring 1 — inner red ring -->
    <circle r="32" fill="none" stroke="#ff2222" stroke-width="1.5" opacity="0.55"/>
    <g fill="#ff2222" opacity="0.8" filter="url(#ring-glow)">
      <circle cx="32"  cy="0"   r="3"/>
      <circle cx="-32" cy="0"   r="3"/>
      <circle cx="0"   cy="32"  r="3"/>
      <circle cx="0"   cy="-32" r="3"/>
      <circle cx="22.6" cy="22.6" r="2.2"/>
      <circle cx="-22.6" cy="22.6" r="2.2"/>
      <circle cx="22.6" cy="-22.6" r="2.2"/>
      <circle cx="-22.6" cy="-22.6" r="2.2"/>
    </g>

    <!-- Connecting spokes (symmetric) -->
    <g stroke="#ff2222" stroke-width="0.7" opacity="0.3">
      <line x1="0" y1="-104" x2="0" y2="104"/>
      <line x1="-104" y1="0" x2="104" y2="0"/>
    </g>
    <g stroke="#ff6600" stroke-width="0.5" opacity="0.2">
      <line x1="-73.5" y1="-73.5" x2="73.5" y2="73.5"/>
      <line x1="73.5" y1="-73.5" x2="-73.5" y2="73.5"/>
    </g>

    <!-- Core hexagon -->
    <polygon points="0,-18 15.6,-9 15.6,9 0,18 -15.6,9 -15.6,-9"
             fill="#ff0000" opacity="0.15" stroke="#ff3333" stroke-width="1.5"/>
    <polygon points="0,-11 9.5,-5.5 9.5,5.5 0,11 -9.5,5.5 -9.5,-5.5"
             fill="#ff2222" opacity="0.3" stroke="#ff5555" stroke-width="1"/>

    <!-- Core -->
    <circle r="8" fill="url(#core-grad)" filter="url(#core-glow)"/>
    <circle r="4" fill="#ffffff" opacity="0.9"/>
    <circle r="2" fill="#fff0f0"/>

  </g>

  <!-- ── TEXT SECTION ── -->

  <!-- Main title -->
  <text
    x="258" y="126"
    font-family="'SF Mono','Fira Code','Cascadia Code','JetBrains Mono',monospace"
    font-size="80"
    font-weight="900"
    letter-spacing="5"
    fill="url(#title-grad)"
    filter="url(#text-glow)">XBADB00B</text>

  <!-- Divider line -->
  <line x1="258" y1="144" x2="900" y2="144" stroke="url(#title-grad)" stroke-width="0.8" opacity="0.3"/>

  <!-- Subtitle -->
  <text
    x="260" y="165"
    font-family="monospace"
    font-size="14"
    letter-spacing="4.5"
    fill="#8b949e">FRIDA · QUICKJS · BYTECODE · DECOMPILER</text>

  <!-- Stats row -->
  <circle cx="260" cy="192" r="4.5" fill="#00e676"/>
  <text x="272" y="197" font-family="monospace" font-size="12.5" fill="#00e676">452 tests passing</text>
  <text x="418" y="197" font-family="monospace" font-size="12.5" fill="#3d444d">·</text>
  <text x="430" y="197" font-family="monospace" font-size="12.5" fill="#666e79">Python 3.8+</text>
  <text x="524" y="197" font-family="monospace" font-size="12.5" fill="#3d444d">·</text>
  <text x="536" y="197" font-family="monospace" font-size="12.5" fill="#666e79">Zero deps</text>
  <text x="614" y="197" font-family="monospace" font-size="12.5" fill="#3d444d">·</text>
  <text x="626" y="197" font-family="monospace" font-size="12.5" fill="#666e79">MIT</text>

  <!-- Bottom tagline -->
  <text
    x="260" y="220"
    font-family="monospace"
    font-size="10.5"
    letter-spacing="1"
    fill="#2d3748">BC_VERSION=2  ·  CONFIG_BIGNUM  ·  248 opcodes  ·  228 built-in atoms</text>

  <!-- Top accent -->
  <rect x="0" y="0" width="960" height="2.5" rx="0" fill="url(#title-grad)" clip-path="url(#clip)" opacity="0.8"/>
  <!-- Bottom accent -->
  <rect x="0" y="237.5" width="960" height="2.5" fill="url(#title-grad)" clip-path="url(#clip)" opacity="0.4"/>
</svg>